<svg xmlns="http://www.w3.org/2000/svg" viewBox="0 0 462.75 104.39"><defs><style>.cls-1,.cls-2{fill:#fff;}.cls-2{font-size:36px;font-family:Futura-Medium, Futura;letter-spacing:0.25em;}.cls-3{letter-spacing:0.25em;}.cls-4{letter-spacing:0.25em;}.cls-5{letter-spacing:0.23em;}.cls-6{letter-spacing:0.27em;}</style></defs><title>logo_MITBootcamps</title><g id="Layer_1" data-name="Layer 1"><path class="cls-1" d="M0,97c0-3,.1-3,5.3-3,2.9,0,5.8-.5,6.5-1.2C13.3,91.3,13.5,48,12,48c-.5,0-1-.9-1-2,0-1.8-.7-2-5.5-2C.3,44,0,43.9,0,41.5V39H55V34H15.8l.7-2.7c1.6-6.7,9.1-16.2,16.3-20.7C38.1,7.3,45.6,5,51.2,5H56V19H77.6c11.9,0,21.4.3,21.2.8s-2,3.9-4.1,7.9L91,34.9l11.3.3,11.3.3L102.9,55.3,92.3,75.2,98.1,86c3.3,5.9,6.2,11.5,6.5,12.4.6,1.5-4.3,1.6-52,1.6H0Zm25.1-4c1.8-1,1.9-2.3,1.9-22.6,0-17.9-.3-21.8-1.5-23.1-.8-.8-1.3-1.9-1-2.4s-.3-.9-1.4-.9c-1.4,0-2.1.6-2.1,2,0,1.1-.4,2-1,2s-1,7.9-1,21.8C19,94.2,19.5,96,25.1,93Zm14,0c1.8-1,1.9-2.3,1.9-22.9,0-18.5-.2-22-1.5-22.5A2.41,2.41,0,0,1,38,45.5a1.5,1.5,0,0,0-3,0,2.41,2.41,0,0,1-1.5,2.1c-1.3.5-1.5,3.9-1.5,22.1,0,19.4.2,21.7,1.8,22.9C35.9,94.2,36.6,94.3,39.1,93ZM55,69V44H52q-3,0-3,1.5a2.41,2.41,0,0,1-1.5,2.1c-1.3.5-1.5,3.9-1.5,22.1,0,23.7.1,24.2,6.3,24.3H55ZM67,85c0-4.9-.1-5-3-5s-3,.1-3,5,.1,5,3,5S67,89.9,67,85Zm11,0c0-4.7-.2-5-2.5-5s-2.5.3-2.5,5,.2,5,2.5,5S78,89.7,78,85Zm12,0c0-4.7-.2-5-2.5-5s-2.5.3-2.5,5,.2,5,2.5,5S90,89.7,90,85ZM67,66c0-4.9-.1-5-3-5s-3,.1-3,5,.1,5,3,5S67,70.9,67,66Zm11,0c0-4.7-.2-5-2.5-5s-2.5.3-2.5,5,.2,5,2.5,5S78,70.7,78,66Zm11-3.5c0-2.4-.5-3.5-1.5-3.5-1.5,0-2,2.6-.9,5.4S89,66.1,89,62.5Zm0-15c0-2.4-.5-3.5-1.5-3.5S86,45.1,86,47.5s.5,3.5,1.5,3.5S89,49.9,89,47.5Zm11,0c0-2.8-.4-3.5-2-3.5s-2,.7-2,3.5.4,3.5,2,3.5S100,50.3,100,47.5Z" transform="translate(0 -5)"/></g><g id="Layer_2" data-name="Layer 2"><text class="cls-2" transform="translate(152.67 42)">MIT<tspan class="cls-3"><tspan x="0" y="52">B</tspan><tspan class="cls-4" x="30.15" y="52">O</tspan><tspan class="cls-5" x="71.39" y="52">OT</tspan><tspan class="cls-6" x="137.13" y="52">C</tspan><tspan class="cls-4" x="172.08" y="52">AMPS</tspan></tspan></text></g></svg>