<?xml version="1.0" encoding="utf-8"?>
<!-- Generator: Adobe Illustrator 22.0.1, SVG Export Plug-In . SVG Version: 6.00 Build 0)  -->
<svg version="1.1" id="Layer_1" xmlns:sketch="http://www.bohemiancoding.com/sketch/ns"
	 xmlns="http://www.w3.org/2000/svg" xmlns:xlink="http://www.w3.org/1999/xlink" x="0px" y="0px" viewBox="0 0 1440 655"
	 style="enable-background:new 0 0 1440 655;" xml:space="preserve">
<style type="text/css">
	.st0{fill:url(#Path-539_2_);}
	.st1{fill:none;stroke:#2595FF;stroke-width:3;}
	.st2{fill:#2A689A;stroke:#2595FF;stroke-width:2;}
	.st3{fill:#2E6F9D;stroke:#2595FF;stroke-width:2;}
	.st4{fill:#3275A2;stroke:#2595FF;stroke-width:2;}
	.st5{fill:#32749A;stroke:#2595FF;stroke-width:2;}
	.st6{fill:#347FAA;stroke:#2595FF;stroke-width:2;}
	.st7{fill:#34789C;stroke:#2595FF;stroke-width:2;}
	.st8{fill:#D4002F;}
</style>
<title>graph</title>
<desc>Created with Sketch Beta.</desc>
<g id="Page-1" sketch:type="MSPage">
	<g id="WINNER" transform="translate(0.000000, -177.000000)" sketch:type="MSArtboardGroup">
		<g id="header" transform="translate(-36.000000, -166.000000)" sketch:type="MSLayerGroup">
			<g id="backgroun" transform="translate(9.000000, 157.000000)" sketch:type="MSShapeGroup">
				<g id="graph" transform="translate(-83.000000, 3.000000)">
					<g transform="translate(110.000000, 184.000000)">
						
							<linearGradient id="Path-539_2_" gradientUnits="userSpaceOnUse" x1="504.7655" y1="470.9479" x2="503.892" y2="470.1259" gradientTransform="matrix(1440 0 0 -654 -725256 308218)">
							<stop  offset="0" style="stop-color:#4CC7FF;stop-opacity:0.15"/>
							<stop  offset="1" style="stop-color:#2595FF;stop-opacity:0.15"/>
						</linearGradient>
						<path id="Path-539" class="st0" d="M0,583c0,0,96.8-113.6,184.9-109.1s150.7,71.3,216.3,71.3s136.3-113.4,210.9-113.4
							s151.6,103.6,207.5,84.3s144.7-145.7,167.1-188.2s123.7-167.1,253.2-194.8S1422.3,49.4,1440,0v654H0V583z"/>
						<path id="Path-539_1_" class="st1" d="M0,583c0,0,96.8-113.6,184.9-109.1s150.7,71.3,216.3,71.3s136.3-113.4,210.9-113.4
							s151.6,103.6,207.5,84.3s144.7-145.7,167.1-188.2s123.7-167.1,253.2-194.8S1422.3,50,1440,0"/>
						<g id="graph-dots" transform="translate(167.000000, 116.000000)">
							<circle id="Oval-60" class="st2" cx="8" cy="357" r="8"/>
							<circle id="Oval-60_1_" class="st3" cx="237" cy="428" r="8"/>
							<circle id="Oval-60_2_" class="st4" cx="440" cy="315" r="8"/>
							<circle id="Oval-60_3_" class="st5" cx="639" cy="403" r="8"/>
							<circle id="Oval-60_4_" class="st6" cx="831" cy="193" r="8"/>
							<circle id="Oval-60_5_" class="st7" cx="1110" cy="8" r="8"/>
						</g>
					</g>
				</g>
			</g>
		</g>
	</g>
</g>
<path class="st8" d="M607,341c-15.5,0-28,10.2-28,22.7c0,12.5,28,58.3,28,58.3s28-45.8,28-58.3S622.5,341,607,341z M607,378.5
	c-6.9,0-12.4-5.6-12.4-12.4c0-6.9,5.6-12.4,12.4-12.4c6.9,0,12.4,5.6,12.4,12.4C619.4,372.9,613.9,378.5,607,378.5z"/>
<path class="st8" d="M175,381.5c-15.5,0-28,10.2-28,22.7c0,12.5,28,58.3,28,58.3s28-45.8,28-58.3S190.5,381.5,175,381.5z M175,419
	c-6.9,0-12.4-5.6-12.4-12.4c0-6.9,5.6-12.4,12.4-12.4c6.9,0,12.4,5.6,12.4,12.4C187.4,413.4,181.9,419,175,419z"/>
<path class="st8" d="M1277,32c-15.5,0-28,10.2-28,22.7s28,58.3,28,58.3s28-45.8,28-58.3S1292.5,32,1277,32z M1277,69.5
	c-6.9,0-12.4-5.6-12.4-12.4c0-6.9,5.6-12.4,12.4-12.4c6.9,0,12.4,5.6,12.4,12.4C1289.4,63.9,1283.9,69.5,1277,69.5z"/>
</svg>
