<?xml version="1.0" standalone="no"?>
<!DOCTYPE svg PUBLIC "-//W3C//DTD SVG 20010904//EN"
 "http://www.w3.org/TR/2001/REC-SVG-20010904/DTD/svg10.dtd">
<svg version="1.0" xmlns="http://www.w3.org/2000/svg"
 width="194.000000pt" height="194.000000pt" viewBox="0 0 194.000000 194.000000"
 preserveAspectRatio="xMidYMid meet">
<metadata>
Created by potrace 1.11, written by Peter Selinger 2001-2013
</metadata>
<g transform="translate(0.000000,194.000000) scale(0.100000,-0.100000)"
fill="#000000" stroke="none">
<path d="M470 960 l0 -240 45 0 45 0 0 172 0 173 43 -75 c23 -41 69 -119 101
-172 l58 -98 59 0 59 0 0 240 0 240 -45 0 -45 0 0 -172 c-1 -139 -3 -170 -13
-155 -7 9 -52 87 -102 172 l-90 155 -57 0 -58 0 0 -240z"/>
<path d="M982 1188 c3 -7 42 -116 88 -241 l83 -228 60 3 59 3 84 230 c46 127
84 234 84 238 0 4 -23 7 -52 5 l-52 -3 -62 -189 -62 -189 -63 192 -64 191 -53
0 c-39 0 -53 -4 -50 -12z"/>
</g>
</svg>
